<svg width="703" height="570" viewBox="0 0 703 570" fill="none" xmlns="http://www.w3.org/2000/svg">
<path d="M67.8268 317.774V429.071C57.2707 413.095 38.4647 380.467 32.0986 342.189V317.774H67.8268Z" fill="#501515"/>
<path opacity="0.2" d="M67.8268 317.774V429.071C57.2707 413.095 38.4647 380.467 32.0986 342.189V317.774H67.8268Z" fill="black"/>
<path d="M112.983 519.844C112.983 519.844 110.969 486.005 75.2894 439.597C75.2894 439.597 -54.4444 276.198 124.74 183.347C124.74 183.347 175.085 145.344 300.133 186.102C300.133 186.102 384.655 214.031 444.727 146.938C456.791 133.288 471.355 122.215 487.584 114.352C521.282 98.3011 574.631 86.6739 618.552 139.576C618.552 139.576 691.486 240.749 593.323 336.513C588.892 340.86 585.416 346.131 583.129 351.972C580.841 357.813 579.796 364.09 580.062 370.38C580.328 376.671 581.9 382.831 584.671 388.446C587.443 394.061 591.351 399.002 596.133 402.937C603.61 408.899 611.775 413.886 620.444 417.786C657.666 435.123 679.225 476.089 671.6 517.365C671.454 518.199 671.292 519.034 671.121 519.869L112.983 519.844Z" fill="#B00000"/>
<path opacity="0.7" d="M671.567 517.365C671.413 518.199 671.25 519.034 671.088 519.869H112.974C112.974 519.869 111.35 492.908 85.666 454.12C82.5695 449.446 79.1104 444.61 75.2886 439.613C75.2886 439.613 72.2841 435.832 67.8262 429.088C57.2702 413.112 38.4642 380.484 32.0981 342.205C23.4827 290.555 37.4736 228.604 124.74 183.398C124.74 183.398 175.084 145.394 300.132 186.152C300.132 186.152 384.646 214.081 444.726 146.988C456.783 133.32 471.344 122.23 487.575 114.352C521.281 98.3011 574.622 86.6739 618.543 139.576C618.543 139.576 691.485 240.749 593.314 336.513C588.883 340.86 585.407 346.131 583.12 351.972C580.833 357.813 579.787 364.09 580.053 370.38C580.319 376.671 581.891 382.831 584.662 388.446C587.434 394.061 591.342 399.002 596.124 402.937C603.6 408.9 611.766 413.888 620.435 417.786C657.665 435.123 679.216 476.089 671.567 517.365Z" fill="white"/>
<path d="M585.162 144.701H549.418V253.954H585.162V144.701Z" fill="#B00000"/>
<path opacity="0.2" d="M585.162 144.701H549.418V253.954H585.162V144.701Z" fill="black"/>
<path d="M651.941 144.701H585.162V253.954H651.941V144.701Z" fill="#B00000"/>
<path opacity="0.2" d="M615.263 144.701H602.093V176.612H615.263V144.701Z" fill="black"/>
<path d="M651.941 253.962H471.344V262.668H651.941V253.962Z" fill="#B00000"/>
<path opacity="0.3" d="M651.941 253.962H471.344V262.668H651.941V253.962Z" fill="white"/>
<path d="M508.03 192.078H477.929V253.962H508.03V192.078Z" fill="#501515"/>
<path opacity="0.2" d="M508.03 192.078H477.929V253.962H508.03V192.078Z" fill="black"/>
<path d="M561.647 192.078H508.03V253.962H561.647V192.078Z" fill="#501515"/>
<path opacity="0.2" d="M531.545 192.078H521.2V210.45H531.545V192.078Z" fill="black"/>
<path d="M85.6664 454.07H32.0742V342.222C38.4484 380.501 57.2463 413.171 67.8024 429.105C72.2603 435.849 75.2647 439.63 75.2647 439.63C79.1136 444.599 82.5808 449.413 85.6664 454.07Z" fill="white"/>
<path d="M185.404 317.774V454.07H85.6659C82.5694 449.396 79.1103 444.56 75.2885 439.563C75.2885 439.563 72.2841 435.782 67.8262 429.038V317.774H185.404Z" fill="#501515"/>
<path opacity="0.2" d="M136.498 317.774H112.982V362.246H136.498V317.774Z" fill="black"/>
<path d="M496.393 519.844H318.029C317.217 507.165 321.52 468.151 323.071 454.546C323.42 451.558 323.623 449.797 323.623 449.797L324.07 421.593H334.626L457.052 443.945L466.098 450.089L492.488 468.01L496.393 519.844Z" fill="#501515"/>
<path opacity="0.2" d="M438.531 519.844H454.162C454.162 519.844 463.614 491.464 495.233 504.218L492.529 468.01L457.093 443.945L432.043 482.45L438.531 519.844Z" fill="black"/>
<path opacity="0.2" d="M318.029 519.844H374.399C374.399 519.844 407.171 502.315 419.976 486.907L419.164 465.772C419.164 465.772 365.767 469.495 323.104 454.546C323.072 454.546 317.087 503.409 318.029 519.844Z" fill="black"/>
<path opacity="0.2" d="M466.13 450.089C454.705 456.633 444.912 466.783 444.937 482.425C444.937 482.425 443.15 503.551 438.522 519.852H420.024C420.122 502.983 420.138 471.44 419.131 465.773C419.131 465.773 357.37 468.452 323.071 454.546C323.412 451.558 323.623 449.797 323.623 449.797L324.062 421.593H334.667L457.092 443.945L466.13 450.089Z" fill="black"/>
<path d="M476.053 331.029L482.037 342.564L527.315 331.788L517.635 313.834H512.796L477.928 329.376L476.053 331.029Z" fill="#F9B499"/>
<path d="M515.557 315.838C488.274 335.177 461.965 330.344 461.965 330.344L469.492 346.78L456.297 450.231C450.743 452.5 444.997 454.238 439.132 455.422C409.014 461.708 374.91 456.341 362.925 454.054C360.049 453.517 357.124 453.313 354.204 453.444C330.55 454.421 333.092 440.565 333.092 440.565L331.574 430.457C331.551 430.32 331.484 430.194 331.385 430.099C331.286 430.005 331.159 429.946 331.024 429.933C330.889 429.92 330.754 429.952 330.639 430.026C330.524 430.099 330.436 430.21 330.388 430.34L321.797 455.064C319.921 453.135 319.921 443.461 319.921 443.461C319.467 430.582 318.606 415.082 317.802 402.37C316.925 388.355 316.178 377.721 316.178 377.721L325.11 314.385C317.583 309.552 306.767 309.068 306.767 309.068C285.614 307.791 275.156 313.709 270.511 317.858C270.128 318.2 269.663 318.431 269.164 318.528C268.665 318.624 268.15 318.582 267.672 318.406C267.194 318.23 266.77 317.927 266.444 317.527C266.119 317.126 265.902 316.644 265.817 316.13C265.228 311.87 265.081 307.559 265.379 303.267C264.413 289.729 284.201 216.251 284.201 216.251C285.143 199.816 334.724 186.135 334.724 186.135L360.132 194.215L436.119 199.491C446.984 202.086 459.318 208.872 459.318 208.872C475.558 216.009 482.972 235.582 482.972 235.582C510.58 283.919 517.433 304.227 517.433 304.227C522.118 311.973 515.557 315.838 515.557 315.838Z" fill="#B00000"/>
<path opacity="0.2" d="M463.329 290.421L447.836 244.288L484.514 294.77L469.468 294.503C469.468 294.503 465.651 291.114 463.329 290.421Z" fill="black"/>
<path d="M444.597 97.0159C444.7 103.503 443.88 109.971 442.161 116.214L440.293 102.491C441.906 100.822 443.348 98.9877 444.597 97.0159Z" fill="#501515"/>
<path opacity="0.2" d="M444.597 97.0159C444.7 103.503 443.88 109.971 442.161 116.214L440.293 102.491C441.906 100.822 443.348 98.9877 444.597 97.0159Z" fill="black"/>
<path d="M442.185 121.497C442.185 151.546 428.698 176.545 410.809 182.187C408.33 182.978 405.748 183.38 403.152 183.381C385.564 183.381 370.672 164.926 365.8 139.576C365.798 139.546 365.798 139.515 365.8 139.485C364.679 133.558 364.119 127.534 364.127 121.497C364.127 87.3166 381.601 59.6133 403.16 59.6133C424.719 59.6133 442.185 87.3166 442.185 121.497Z" fill="#F9B499"/>
<path d="M413.967 202.712C413.049 217.019 393.009 232.202 392.36 232.678C393.667 223.705 390.516 218.271 386.773 215.024C384.034 212.728 380.788 211.157 377.321 210.45C355.69 205.617 351.922 181.444 351.922 181.444C354.456 179.69 356.657 177.475 358.418 174.909C358.605 174.642 358.783 174.375 358.954 174.074C358.989 174.029 359.022 173.981 359.051 173.932C359.206 173.69 359.368 173.44 359.506 173.189C359.587 173.075 359.66 172.955 359.725 172.83C359.866 172.608 359.994 172.376 360.107 172.138C366.473 160.686 366.164 145.494 365.896 140.87C365.892 140.812 365.892 140.753 365.896 140.695C365.896 140.47 365.896 140.261 365.896 140.102C365.896 139.76 365.856 139.576 365.856 139.576C370.728 164.926 385.62 183.381 403.208 183.381C405.804 183.38 408.386 182.978 410.865 182.187L410.792 184.316C410.735 185.291 411.024 186.255 411.604 187.028C412.408 188.101 413.016 189.314 413.399 190.609C413.88 192.22 414.171 193.885 414.267 195.567C414.403 197.953 414.302 200.347 413.967 202.712Z" fill="#F9B499"/>
<path d="M413.367 190.609C383.607 198.806 358.402 174.909 358.402 174.909C358.581 174.642 358.768 174.383 358.938 174.074C358.973 174.029 359.006 173.981 359.036 173.932C359.19 173.69 359.352 173.44 359.49 173.189C359.571 173.075 359.644 172.955 359.71 172.83C359.84 172.605 359.969 172.371 360.091 172.138C366.311 160.853 366.1 145.428 365.881 140.87C365.877 140.812 365.877 140.753 365.881 140.695C365.881 140.461 365.881 140.261 365.881 140.102C365.881 139.76 365.84 139.576 365.84 139.576C370.712 164.926 385.604 183.381 403.192 183.381C405.789 183.38 408.37 182.978 410.85 182.187L410.777 184.316C410.72 185.291 411.008 186.255 411.589 187.028C412.386 188.102 412.989 189.315 413.367 190.609Z" fill="#F7A48B"/>
<path d="M413.967 202.712C413.034 217.219 392.336 232.686 392.336 232.686C393.643 223.713 390.492 218.279 386.749 215.032C387.123 215.166 395.178 218.371 396.103 224.948C396.103 224.948 407.902 214.54 414.235 195.576C414.381 197.958 414.291 200.349 413.967 202.712Z" fill="#F7A48B"/>
<path d="M427.114 235.591C422.043 231.024 415.496 228.568 408.755 228.705C403.095 228.802 397.521 230.145 392.409 232.644C392.414 232.633 392.42 232.623 392.429 232.614C392.437 232.606 392.447 232.599 392.458 232.594L392.661 232.436L393.4 231.851L393.635 231.659C394.066 231.309 394.602 230.875 395.211 230.357L395.836 229.823L396.648 229.147L397.046 228.788C397.371 228.504 397.703 228.195 398.053 227.878C398.402 227.561 398.532 227.436 398.783 227.202L398.962 227.035C399.417 226.601 399.888 226.15 400.367 225.675L400.854 225.19C401.26 224.781 401.666 224.356 402.08 223.922C402.251 223.763 402.413 223.588 402.567 223.413C402.722 223.237 402.9 223.07 403.063 222.887C403.387 222.545 403.72 222.177 404.037 221.81C404.199 221.635 404.354 221.443 404.516 221.259C405.815 219.765 407.082 218.179 408.251 216.535C408.389 216.326 408.544 216.126 408.682 215.909C408.82 215.692 408.966 215.491 409.104 215.283C409.242 215.074 409.38 214.865 409.51 214.648C410.851 212.601 411.959 210.402 412.815 208.096C412.888 207.871 412.961 207.654 413.042 207.428C413.547 205.909 413.861 204.33 413.976 202.729C414.3 200.366 414.39 197.975 414.244 195.592C414.148 193.91 413.856 192.246 413.375 190.634C412.992 189.339 412.384 188.126 411.581 187.054C411 186.28 410.712 185.316 410.769 184.341L410.842 182.212L430.062 192.346C447.966 203.196 427.114 235.591 427.114 235.591Z" fill="#B00000"/>
<path opacity="0.3" d="M427.114 235.591C422.043 231.024 415.496 228.568 408.755 228.705C403.095 228.802 397.521 230.145 392.409 232.644C392.414 232.633 392.42 232.623 392.429 232.614C392.437 232.606 392.447 232.599 392.458 232.594L392.661 232.436L393.4 231.851L393.635 231.659C394.066 231.309 394.602 230.875 395.211 230.357L395.836 229.823L396.648 229.147L397.046 228.788C397.371 228.504 397.703 228.195 398.053 227.878C398.402 227.561 398.532 227.436 398.783 227.202L398.962 227.035C399.417 226.601 399.888 226.15 400.367 225.675L400.854 225.19C401.26 224.781 401.666 224.356 402.08 223.922C402.251 223.763 402.413 223.588 402.567 223.413C402.722 223.237 402.9 223.07 403.063 222.887C403.387 222.545 403.72 222.177 404.037 221.81C404.199 221.635 404.354 221.443 404.516 221.259C405.815 219.765 407.082 218.179 408.251 216.535C408.389 216.326 408.544 216.126 408.682 215.909C408.82 215.692 408.966 215.491 409.104 215.283C409.242 215.074 409.38 214.865 409.51 214.648C410.851 212.601 411.959 210.402 412.815 208.096C412.888 207.871 412.961 207.654 413.042 207.428C413.547 205.909 413.861 204.33 413.976 202.729C414.3 200.366 414.39 197.975 414.244 195.592C414.148 193.91 413.856 192.246 413.375 190.634C412.992 189.339 412.384 188.126 411.581 187.054C411 186.28 410.712 185.316 410.769 184.341L410.842 182.212L430.062 192.346C447.966 203.196 427.114 235.591 427.114 235.591Z" fill="white"/>
<path d="M375.543 210.007C375.543 210.007 364.119 212.386 356.591 217.219C356.591 217.219 343.965 226.442 338.524 213.613C338.524 213.613 327.302 190.668 337.712 182.187L351.89 174.258C351.621 176.645 351.621 179.057 351.89 181.444C351.89 181.444 355.925 204.724 375.543 210.007Z" fill="#B00000"/>
<path opacity="0.3" d="M375.543 210.007C375.543 210.007 364.119 212.386 356.591 217.219C356.591 217.219 343.965 226.442 338.524 213.613C338.524 213.613 327.302 190.668 337.712 182.187L351.89 174.258C351.621 176.645 351.621 179.057 351.89 181.444C351.89 181.444 355.925 204.724 375.543 210.007Z" fill="white"/>
<path d="M351.889 174.258C351.889 174.258 356.087 171.545 360.099 172.138C358.131 175.874 355.314 179.066 351.889 181.444C351.889 181.444 350.947 176.745 351.889 174.258Z" fill="#B00000"/>
<path opacity="0.35" d="M351.889 174.258C351.889 174.258 356.087 171.545 360.099 172.138C358.131 175.874 355.314 179.066 351.889 181.444C351.889 181.444 350.947 176.745 351.889 174.258Z" fill="white"/>
<path opacity="0.3" d="M408.755 228.704C403.095 228.802 397.521 230.145 392.409 232.644C392.409 232.644 392.409 232.644 392.466 232.594L392.669 232.436L393.408 231.851L393.643 231.659C394.074 231.309 394.61 230.875 395.219 230.357L395.844 229.823L396.656 229.147C396.786 229.038 396.916 228.913 397.054 228.788C397.379 228.504 397.712 228.195 398.061 227.878C398.41 227.561 398.54 227.436 398.792 227.202L398.97 227.035C399.425 226.601 399.896 226.15 400.375 225.675L400.862 225.19C401.268 224.781 401.674 224.356 402.088 223.922C402.259 223.763 402.421 223.588 402.575 223.413C402.73 223.237 402.908 223.07 403.071 222.887C403.396 222.544 403.728 222.177 404.045 221.81C404.216 221.626 404.378 221.443 404.524 221.259C405.823 219.765 407.09 218.179 408.259 216.535C408.414 216.326 408.552 216.109 408.69 215.909C408.828 215.708 408.974 215.491 409.112 215.283C409.25 215.074 409.388 214.865 409.518 214.648C410.859 212.601 411.967 210.402 412.823 208.096C412.896 207.871 412.977 207.654 413.05 207.428C413.555 205.909 413.869 204.33 413.984 202.729C413.984 202.729 414.812 217.854 408.755 228.704Z" fill="white"/>
<path opacity="0.2" d="M469.468 346.779L456.297 450.231C450.743 452.5 444.997 454.238 439.131 455.422C417.906 432.694 398.328 419.932 388.3 409.298C381.223 401.725 371.688 397.089 361.504 396.268C352.296 395.688 343.053 396.277 333.985 398.021L317.745 402.37C316.868 388.355 316.121 377.721 316.121 377.721L325.053 314.385C325.053 314.385 336.811 318.742 339.629 304.235C344.458 285.641 346.676 266.433 346.214 247.193C346.214 247.193 352.799 278.126 349.982 299.403C349.982 299.403 346.214 312.941 371.613 309.068L461.908 330.344L469.468 346.779Z" fill="black"/>
<path d="M520.908 292.141C520.142 296.083 518.884 299.907 517.164 303.518C515.053 307.741 512.861 309.602 511.48 310.42C510.976 310.709 510.507 311.059 510.084 311.464C509.48 312.03 508.956 312.679 508.525 313.392L505.853 317.807L492.049 311.038C489.223 308.133 485.464 310.07 485.464 310.07L479.423 306.731L461.558 337.373C463.994 345.327 456.638 343.841 456.638 343.841L443.126 337.164L466.674 296.556L469.5 294.561H471.376C469.194 293.122 467.575 290.938 466.804 288.393C466.461 287.408 466.381 286.345 466.574 285.317C466.767 284.29 467.225 283.334 467.9 282.55C471.644 278.327 479.861 278.327 488.752 279.996C496.372 281.56 503.854 283.763 511.123 286.582C515.102 288.068 518.244 289.395 519.909 290.121C520.282 290.28 520.588 290.571 520.771 290.941C520.954 291.312 521.003 291.737 520.908 292.141Z" fill="#501515"/>
<path opacity="0.1" d="M471.344 280.18C471.344 280.18 473.909 294.369 481.981 300.254C481.169 299.903 473.138 296.323 471.344 294.52C471.344 294.536 460.057 286.098 471.344 280.18Z" fill="white"/>
<path opacity="0.1" d="M520.909 292.141C518.18 304.937 513.771 309.085 511.441 310.421C510.936 310.709 510.467 311.059 510.044 311.464L502.387 308.125C509.914 301.356 511.108 286.615 511.108 286.615C515.086 288.101 518.229 289.428 519.894 290.154C520.263 290.31 520.567 290.594 520.753 290.958C520.939 291.321 520.994 291.74 520.909 292.141Z" fill="white"/>
<path opacity="0.2" d="M471.344 280.18C471.344 280.18 473.228 297.466 487.34 303.267L502.387 308.1C502.387 308.1 509.475 302.783 511.108 286.59C511.108 286.59 485.456 275.447 471.344 280.18Z" fill="black"/>
<path d="M430.898 357.413L424.32 419.289L571.049 386.419L572.016 317.774L430.898 357.413Z" fill="#CCCCCC"/>
<path d="M551.764 327.924L550.359 352.58L568.223 349.676L568.694 324.059L551.764 327.924Z" fill="white"/>
<path d="M571.05 386.419L625.608 451.199L622.783 386.419L572.016 317.774L571.05 386.419Z" fill="#999999"/>
<path d="M625.608 451.199L482.038 482.416L424.32 419.289L571.049 386.419L625.608 451.199Z" fill="#B3B3B3"/>
<path d="M593.266 458.244C593.266 458.244 592.949 465.48 590.465 465.113L589.515 459.078L593.266 458.244Z" fill="#F7A48B"/>
<path d="M606.632 464.621C606.632 464.621 611.504 462.801 612.438 459.905L609.531 454.696L604.001 455.898L606.632 464.621Z" fill="#F7A48B"/>
<path d="M625.031 438.103C625.031 438.103 630.853 445.49 630.114 449.788C630.114 449.788 626.119 446.207 625.389 446.282L625.031 438.103Z" fill="#F7A48B"/>
<path d="M448.761 87.467C448.583 88.1598 441.648 113.342 422.777 105.83C419.074 104.523 415.662 102.468 412.741 99.787L412.587 99.6534L411.149 98.2595C411.149 98.2595 412.091 105.997 417.735 109.862C417.735 109.862 402.68 114.695 392.335 107.925C392.335 107.925 386.692 105.997 382.932 98.2595C382.932 98.2595 378.231 102.124 379.164 110.83C379.164 110.83 381.747 121.94 370.59 132.331L365.807 139.535C366.416 147.882 364.938 157.155 364.354 160.352C364.289 160.736 364.199 161.128 364.126 161.52C361.674 156.575 358.354 152.138 354.333 148.433C350.556 145.201 347.48 141.192 345.304 136.663C344.036 133.911 342.993 131.055 342.186 128.125C340.468 121.935 339.757 115.496 340.083 109.069C340.459 101.83 342.027 94.7095 344.719 88.0095C345.077 87.0997 345.45 86.1983 345.856 85.3135C351.962 71.7832 363.314 57.1762 383.095 62.6183C383.095 62.6183 386.684 42.8446 412.513 53.0361C423.841 57.5101 433.29 65.913 439.228 76.7913C439.269 76.8831 439.318 76.9666 439.366 77.0584C439.415 77.1502 442.184 81.8913 448.769 79.9548C448.769 79.9548 447.836 86.7241 445.01 87.6923C445.563 88.1094 446.24 88.315 446.925 88.2739C447.61 88.2327 448.259 87.9474 448.761 87.467Z" fill="#501515"/>
<path opacity="0.2" d="M364.346 160.394C364.281 160.778 364.191 161.17 364.118 161.562C361.666 156.617 358.346 152.18 354.326 148.474C350.549 145.243 347.473 141.234 345.296 136.705C344.028 133.953 342.985 131.097 342.178 128.166C340.46 121.977 339.749 115.538 340.075 109.11C340.887 110.379 347.935 121.497 355.787 121.497L365.799 139.576C365.799 139.576 366.879 147.055 364.346 160.394Z" fill="black"/>
<path opacity="0.2" d="M383.103 62.6516C380.448 65.6899 380.35 71.2656 380.35 71.2656C361.106 62.7184 345.15 87.3751 344.728 88.0429C345.085 87.133 345.458 86.2316 345.864 85.3468C351.971 71.7831 363.322 57.2095 383.103 62.6516Z" fill="black"/>
<path opacity="0.2" d="M379.206 110.863C379.206 110.863 381.788 121.973 370.631 132.365C370.866 132.006 375.397 125.086 373.562 114.728C372.903 110.287 373.333 105.748 374.811 101.521C376.29 97.2944 378.772 93.5138 382.031 90.522C382.031 90.522 382.031 96.3648 382.973 98.2595C382.933 98.2929 378.231 102.158 379.206 110.863Z" fill="black"/>
<path opacity="0.2" d="M417.735 109.895C406.448 109.895 393.554 88.0429 393.554 88.0429C401.341 82.6258 411.15 98.2929 411.15 98.2929C411.15 98.2929 412.092 106.005 417.735 109.895Z" fill="black"/>
<path opacity="0.2" d="M354.415 218.521C354.415 218.521 384.297 213.346 388.787 235.591L389.518 262.66C389.518 262.66 389.908 285.054 400.529 291.74C400.529 291.74 392.336 279.003 392.807 259.713L394.033 242.135C394.102 241.17 394.387 240.235 394.864 239.401C395.341 238.567 395.999 237.858 396.785 237.327C400.935 234.514 410.029 230.649 423.379 237.519L427.138 235.591C427.138 235.591 415.039 221.977 392.401 232.653C392.401 232.653 394.333 220.583 386.717 215.032C386.717 215.032 381.284 210.525 375.511 210.024C375.543 210.008 361.642 213.054 354.415 218.521Z" fill="black"/>
<path d="M405.32 251.592C407.293 251.592 408.893 249.947 408.893 247.919C408.893 245.891 407.293 244.246 405.32 244.246C403.347 244.246 401.747 245.891 401.747 247.919C401.747 249.947 403.347 251.592 405.32 251.592Z" fill="#501515"/>
<path d="M406.448 266.524C408.524 266.524 410.208 264.794 410.208 262.66C410.208 260.525 408.524 258.795 406.448 258.795C404.372 258.795 402.688 260.525 402.688 262.66C402.688 264.794 404.372 266.524 406.448 266.524Z" fill="#501515"/>
<path d="M407.106 279.145C409.079 279.145 410.679 277.5 410.679 275.472C410.679 273.444 409.079 271.799 407.106 271.799C405.133 271.799 403.533 273.444 403.533 275.472C403.533 277.5 405.133 279.145 407.106 279.145Z" fill="#501515"/>
<path d="M331.2 386.419H112.982V519.844H331.2V386.419Z" fill="#B00000"/>
<path d="M331.2 386.419H112.982V519.844H331.2V386.419Z" fill="#B00000"/>
<path opacity="0.3" d="M331.2 386.419H112.982V519.844H331.2V386.419Z" fill="white"/>
<path d="M112.982 386.419H80.0635V519.844H112.982V386.419Z" fill="#B00000"/>
<path opacity="0.4" d="M112.982 386.419H80.0635V519.844H112.982V386.419Z" fill="white"/>
<path d="M404.565 439.597H297.34V519.844H404.565V439.597Z" fill="#B3B3B3"/>
<path d="M297.34 439.597H177.886V519.844H297.34V439.597Z" fill="#CCCCCC"/>
<path opacity="0.2" d="M297.34 439.597H177.886V465.706H297.34V439.597Z" fill="black"/>
<path opacity="0.2" d="M404.564 439.597H296.868V465.706H404.564V439.597Z" fill="black"/>
<path opacity="0.3" d="M228.676 386.419H153.428V427.026H228.676V386.419Z" fill="white"/>
<path d="M366.737 144.935C370.886 143.378 372.254 136.492 369.79 129.555C367.327 122.617 361.967 118.255 357.817 119.812C353.668 121.369 352.3 128.255 354.763 135.192C357.227 142.13 362.587 146.491 366.737 144.935Z" fill="#F9B499"/>
<path d="M484.514 319.685C484.514 327.423 476.053 325.528 476.053 325.528C475.111 335.202 466.642 334.234 466.642 334.234C462.866 337.823 458.457 338.549 454.169 337.831C444.588 336.237 435.615 327.473 435.615 327.473L400.699 340.402C397.824 341.454 395.015 342.606 392.189 343.833C387.528 345.87 382.948 348.148 378.474 350.619C320.822 382.454 296.381 381.586 296.381 381.586C290.981 380.551 286.637 371.678 283.389 360.719C282.195 356.754 281.131 352.522 280.189 348.282C277.819 337.231 276.003 326.062 274.749 314.819C299.694 300.888 325.223 314.151 325.223 314.151L325.451 321.296L356.599 315.871C413.975 305.237 434.673 295.563 434.673 295.563C440.357 291.698 453.487 290.73 453.487 290.73C462.89 286.865 469.476 294.536 469.476 294.536L466.65 296.531C468.534 301.364 485.464 310.07 485.464 310.07C491.107 308.133 492.049 311.038 492.049 311.038C494.859 320.67 484.514 319.685 484.514 319.685Z" fill="#F9B499"/>
<path d="M325.443 321.263C282.634 310.412 280.238 347.272 280.182 348.248C277.811 337.197 275.995 326.029 274.741 314.786C300.628 300.855 325.215 314.118 325.215 314.118L325.443 321.263Z" fill="#F7A48B"/>
<path d="M378.45 350.569C320.822 382.454 296.381 381.586 296.381 381.586C290.981 380.551 286.637 371.678 283.389 360.719C283.681 360.961 296.892 371.828 340.602 363.223C348 361.233 355.233 358.646 362.234 355.485C367.487 353.356 372.914 351.71 378.45 350.569Z" fill="#F7A48B"/>
<path d="M454.162 337.798C444.58 336.204 435.608 327.44 435.608 327.44L400.691 340.369C397.817 341.421 395.007 342.573 392.182 343.8L442.331 318.258C442.645 322.249 443.883 326.104 445.941 329.503C447.999 332.902 450.818 335.746 454.162 337.798Z" fill="#F7A48B"/>
<path d="M452.537 329.376C457.222 331.096 461.713 333.308 466.642 334.209C461.591 334.66 456.605 332.273 452.537 329.376Z" fill="#F7A48B"/>
<path d="M459.594 322.248C464.961 323.625 470.499 325.428 476.061 325.503C470.475 326.78 464.555 324.886 459.594 322.248Z" fill="#F7A48B"/>
<path d="M471.344 315.838C475.889 316.475 480.323 317.77 484.514 319.685C479.968 319.045 475.534 317.744 471.344 315.821V315.838Z" fill="#F7A48B"/>
<path opacity="0.2" d="M520.909 292.141C520.143 296.083 518.884 299.907 517.165 303.518C514.128 298.017 489.508 280.589 488.745 280.038C496.364 281.602 503.846 283.805 511.116 286.624C515.095 288.109 518.237 289.436 519.902 290.163C520.268 290.319 520.569 290.603 520.753 290.964C520.937 291.326 520.992 291.742 520.909 292.141Z" fill="black"/>
<path d="M623.618 406.101C623.618 406.101 631.227 405.759 631.227 410.591C631.227 410.591 633.346 417.135 624.292 421.601L623.618 406.101Z" fill="#F9B499"/>
<path d="M584.22 446.366C584.22 446.366 579.518 446.366 582.336 457C582.336 457 585.162 466.666 588.921 465.706C588.921 465.706 593.623 466.666 589.863 454.104C589.863 454.07 588.921 445.398 584.22 446.366Z" fill="#F9B499"/>
<path d="M595.629 441.391C594.062 443.303 591.163 448.737 595.507 459.905C595.507 459.905 599.47 467.776 604.545 465.747C604.545 465.747 609.612 464.712 606.794 458.911C606.794 458.911 602.239 450.055 602.166 446.266C602.166 446.266 601.353 440.799 597.699 440.423C597.304 440.399 596.908 440.475 596.547 440.643C596.187 440.812 595.871 441.069 595.629 441.391Z" fill="#F9B499"/>
<path d="M604.942 442.877C604.203 444.379 603.497 447.151 605.015 451.174C606.284 454.526 608.601 457.351 611.601 459.204C613.809 460.564 616.473 461.466 618.251 459.654C618.251 459.654 623.708 457 617.122 450.231C617.122 450.231 612.007 443.002 608.101 441.55C607.508 441.335 606.858 441.351 606.276 441.596C605.693 441.84 605.219 442.296 604.942 442.877Z" fill="#F9B499"/>
<path d="M617.797 441.925C617.797 441.925 615.255 444.43 617.797 448.77C617.797 448.77 624.666 457 628.426 454.104C628.426 454.104 631.844 452.434 629.376 448.01C628.777 446.967 628.017 446.032 627.126 445.239C624.967 443.261 620.16 439.413 617.797 441.925Z" fill="#F9B499"/>
<path d="M300.157 421.225H174.118V453.135H300.157V421.225Z" fill="#CCCCCC"/>
<path opacity="0.2" d="M249.367 421.225H226.793V486.974H249.367V421.225Z" fill="black"/>
<path d="M407.382 421.225H300.157V453.135H407.382V421.225Z" fill="#999999"/>
<path d="M98.3903 136.772H95.7676V264.437H98.3903V136.772Z" fill="#501515"/>
<path d="M102.929 136.772H100.307V264.437H102.929V136.772Z" fill="#501515"/>
<path d="M113.688 136.772H111.065V252.927H113.688V136.772Z" fill="#501515"/>
<path d="M138.536 136.772H135.913V252.927H138.536V136.772Z" fill="#501515"/>
<path d="M155.499 136.772H152.876V252.927H155.499V136.772Z" fill="#501515"/>
<path d="M173.427 136.772H170.805V252.927H173.427V136.772Z" fill="#501515"/>
<path d="M178.202 136.772H175.579V264.437H178.202V136.772Z" fill="#501515"/>
<path d="M182.977 136.772H180.354V264.437H182.977V136.772Z" fill="#501515"/>
<path d="M200.426 136.772H197.804V252.927H200.426V136.772Z" fill="#501515"/>
<path d="M218.592 136.772H215.969V252.927H218.592V136.772Z" fill="#501515"/>
<path d="M236.033 136.772H233.41V252.927H236.033V136.772Z" fill="#501515"/>
<path d="M241.06 136.772H238.429V252.927H241.06V136.772Z" fill="#501515"/>
<path d="M253.475 136.772H250.853V252.927H253.475V136.772Z" fill="#501515"/>
<path d="M258.737 136.772H256.114V264.437H258.737V136.772Z" fill="#501515"/>
<path d="M263.747 136.772H261.124V264.437H263.747V136.772Z" fill="#501515"/>
<path d="M120.371 136.772H115.597V252.927H120.371V136.772Z" fill="#501515"/>
<path d="M128.021 136.772H123.246V252.927H128.021V136.772Z" fill="#501515"/>
<path d="M150.481 136.772H145.706V252.927H150.481V136.772Z" fill="#501515"/>
<path d="M162.912 136.772H158.138V252.927H162.912V136.772Z" fill="#501515"/>
<path d="M193.021 136.772H186.095V252.927H193.021V136.772Z" fill="#501515"/>
<path d="M210.227 136.772H203.301V252.927H210.227V136.772Z" fill="#501515"/>
<path d="M228.149 136.772H221.223V252.927H228.149V136.772Z" fill="#501515"/>
<path d="M118.001 278.026C117.069 278.075 116.144 277.837 115.346 277.342C114.669 276.869 114.159 276.184 113.892 275.388C113.571 274.442 113.417 273.444 113.437 272.442C113.423 271.713 113.508 270.985 113.689 270.28C113.826 269.764 114.049 269.275 114.347 268.836C114.598 268.492 114.906 268.196 115.256 267.96C115.57 267.743 115.895 267.545 116.231 267.367C115.454 267.038 114.796 266.469 114.347 265.739C113.827 264.819 113.576 263.764 113.624 262.701C113.616 261.822 113.762 260.948 114.054 260.122C114.323 259.393 114.816 258.774 115.459 258.361C116.239 257.896 117.133 257.675 118.033 257.726C118.921 257.678 119.803 257.901 120.567 258.369C121.187 258.8 121.665 259.414 121.939 260.13C122.236 260.964 122.382 261.847 122.369 262.735C122.418 263.782 122.173 264.823 121.663 265.731C121.209 266.452 120.556 267.016 119.787 267.35C120.121 267.527 120.444 267.725 120.753 267.943C121.087 268.183 121.378 268.479 121.614 268.819C121.913 269.258 122.14 269.742 122.288 270.255C122.475 270.962 122.563 271.693 122.548 272.425C122.564 273.427 122.41 274.424 122.093 275.372C121.829 276.164 121.322 276.846 120.648 277.317C119.854 277.819 118.932 278.066 118.001 278.026ZM118.001 276.607C118.56 276.634 119.113 276.473 119.576 276.148C120.028 275.808 120.356 275.324 120.51 274.771C120.899 273.306 120.899 271.761 120.51 270.297C120.376 269.735 120.095 269.221 119.698 268.811C119.229 268.411 118.643 268.185 118.033 268.168C117.409 268.181 116.806 268.407 116.32 268.811C115.885 269.207 115.57 269.723 115.411 270.297C115.213 270.993 115.12 271.717 115.134 272.442C115.112 273.232 115.222 274.019 115.459 274.771C115.61 275.339 115.95 275.835 116.421 276.171C116.892 276.507 117.463 276.661 118.033 276.607H118.001ZM118.001 266.524C118.572 266.53 119.126 266.329 119.568 265.957C119.961 265.587 120.243 265.109 120.38 264.579C120.54 263.947 120.617 263.296 120.607 262.643C120.671 261.717 120.455 260.793 119.99 259.997C119.755 259.692 119.45 259.453 119.103 259.298C118.756 259.144 118.378 259.08 118.001 259.112C117.62 259.08 117.238 259.144 116.887 259.298C116.536 259.452 116.227 259.692 115.987 259.997C115.51 260.788 115.288 261.714 115.354 262.643C115.338 263.297 115.418 263.949 115.589 264.579C115.731 265.119 116.031 265.6 116.45 265.957C116.892 266.316 117.437 266.515 118.001 266.524Z" fill="#501515"/>
<path d="M132.357 278.026C131.517 278.059 130.682 277.884 129.921 277.517C129.275 277.18 128.758 276.63 128.451 275.956C128.101 275.144 127.923 274.265 127.932 273.377V273.018H129.645C129.569 273.958 129.776 274.899 130.238 275.714C130.711 276.153 131.305 276.43 131.938 276.506C132.571 276.583 133.211 276.455 133.77 276.14C134.211 275.811 134.529 275.336 134.671 274.796C134.907 273.97 135.011 273.11 134.98 272.25V268.494C134.667 268.853 134.281 269.138 133.851 269.329C133.224 269.588 132.553 269.713 131.878 269.696C131 269.747 130.127 269.529 129.369 269.07C128.723 268.603 128.262 267.912 128.07 267.125C127.791 266.036 127.665 264.912 127.696 263.786C127.671 262.699 127.827 261.615 128.159 260.581C128.43 259.743 128.946 259.011 129.637 258.486C130.429 257.955 131.363 257.692 132.308 257.735C133.223 257.691 134.126 257.955 134.882 258.486C135.567 259.024 136.068 259.773 136.311 260.623C136.637 261.703 136.791 262.831 136.766 263.962V271.891C136.786 272.982 136.641 274.069 136.336 275.113C136.107 275.969 135.628 276.732 134.963 277.3C134.203 277.846 133.282 278.103 132.357 278.026ZM132.292 268.269C132.886 268.297 133.477 268.165 134.005 267.885C134.382 267.688 134.723 267.425 135.012 267.108V263.703C135.031 262.812 134.938 261.923 134.736 261.057C134.638 260.482 134.333 259.967 133.881 259.614C133.43 259.261 132.865 259.097 132.3 259.154C131.744 259.13 131.196 259.287 130.733 259.605C130.279 259.947 129.948 260.434 129.791 260.99C129.564 261.755 129.459 262.553 129.482 263.352C129.465 264.266 129.524 265.179 129.661 266.082C129.728 266.697 130.001 267.27 130.433 267.701C130.955 268.11 131.604 268.312 132.26 268.269H132.292Z" fill="#501515"/>
<path d="M147.784 277.809V271.966H141.954V270.13L147.419 257.918H149.473V270.38H151.698V272H149.473V277.842L147.784 277.809ZM143.724 270.355H147.784V260.256L143.724 270.355Z" fill="#501515"/>
<path d="M157.294 277.809L161.078 259.296H155.215V257.844H162.872V258.753L158.991 277.834L157.294 277.809Z" fill="#501515"/>
<path d="M195.734 278.026C194.768 278.083 193.811 277.817 193.006 277.267C192.329 276.741 191.829 276.012 191.576 275.18C191.276 274.203 191.131 273.183 191.146 272.158V263.494C191.128 262.466 191.279 261.441 191.593 260.464C191.854 259.637 192.366 258.917 193.054 258.411C193.851 257.884 194.788 257.627 195.734 257.676C196.696 257.624 197.649 257.88 198.462 258.411C199.144 258.92 199.65 259.64 199.908 260.464C200.222 261.441 200.373 262.466 200.354 263.494V272.158C200.37 273.191 200.224 274.219 199.924 275.205C199.675 276.036 199.17 276.762 198.487 277.275C197.67 277.82 196.706 278.083 195.734 278.026ZM195.734 276.607C196.357 276.645 196.97 276.436 197.447 276.023C197.872 275.603 198.171 275.068 198.308 274.479C198.477 273.766 198.562 273.034 198.56 272.3V263.386C198.566 262.652 198.481 261.92 198.308 261.207C198.171 260.618 197.872 260.082 197.447 259.663C196.959 259.271 196.352 259.07 195.734 259.095C195.114 259.061 194.504 259.263 194.021 259.663C193.59 260.078 193.29 260.616 193.16 261.207C192.979 261.918 192.894 262.651 192.908 263.386V272.3C192.898 273.035 192.983 273.767 193.16 274.479C193.29 275.07 193.59 275.608 194.021 276.023C194.498 276.436 195.111 276.645 195.734 276.607Z" fill="#501515"/>
<path d="M210.496 278.026C209.53 278.085 208.572 277.818 207.767 277.267C207.088 276.744 206.588 276.013 206.338 275.18C206.03 274.205 205.884 273.183 205.908 272.158V263.494C205.891 262.466 206.039 261.443 206.346 260.464C206.607 259.639 207.116 258.92 207.8 258.411C208.627 257.931 209.562 257.679 210.512 257.679C211.462 257.679 212.396 257.931 213.224 258.411C213.903 258.921 214.407 259.64 214.661 260.464C214.975 261.441 215.126 262.466 215.108 263.494V272.158C215.123 273.191 214.978 274.219 214.677 275.205C214.427 276.034 213.927 276.759 213.248 277.275C212.431 277.818 211.467 278.081 210.496 278.026ZM210.496 276.607C211.118 276.64 211.729 276.432 212.209 276.023C212.634 275.604 212.932 275.068 213.07 274.479C213.246 273.767 213.331 273.035 213.321 272.3V263.386C213.331 262.651 213.246 261.919 213.07 261.207C212.936 260.617 212.637 260.08 212.209 259.663C211.707 259.301 211.109 259.106 210.496 259.106C209.882 259.106 209.284 259.301 208.782 259.663C208.354 260.08 208.055 260.617 207.921 261.207C207.748 261.92 207.664 262.652 207.67 263.386V272.3C207.668 273.034 207.752 273.766 207.921 274.479C208.052 275.07 208.352 275.608 208.782 276.023C209.257 276.441 209.872 276.651 210.496 276.607Z" fill="#501515"/>
<path d="M225.241 278.026C224.278 278.083 223.323 277.817 222.521 277.267C221.841 276.743 221.339 276.013 221.084 275.18C220.791 274.201 220.646 273.182 220.653 272.158V263.494C220.639 262.466 220.79 261.442 221.1 260.464C221.361 259.637 221.873 258.917 222.562 258.411C223.358 257.885 224.295 257.628 225.241 257.676C226.203 257.622 227.157 257.879 227.969 258.411C228.653 258.92 229.162 259.639 229.423 260.464C229.729 261.443 229.88 262.466 229.87 263.494V272.158C229.882 273.191 229.734 274.22 229.431 275.205C229.182 276.036 228.678 276.762 227.994 277.275C227.177 277.82 226.213 278.083 225.241 278.026ZM225.241 276.607C225.866 276.641 226.48 276.433 226.963 276.023C227.385 275.603 227.681 275.067 227.815 274.479C227.988 273.766 228.073 273.034 228.067 272.3V263.386C228.073 262.652 227.988 261.92 227.815 261.207C227.681 260.619 227.385 260.083 226.963 259.663C226.472 259.27 225.862 259.069 225.241 259.095C224.622 259.062 224.012 259.264 223.528 259.663C223.115 260.084 222.832 260.621 222.716 261.207C222.532 261.918 222.445 262.651 222.456 263.386V272.3C222.449 273.035 222.536 273.768 222.716 274.479C222.832 275.065 223.115 275.602 223.528 276.023C224.005 276.436 224.618 276.645 225.241 276.607Z" fill="#501515"/>
<path d="M236.293 277.809L240.061 259.337H234.206V257.918H241.855V258.753L237.99 277.792L236.293 277.809Z" fill="#501515"/>
</svg>
